<svg width="35.93" height="32" viewBox="0 0 123 32" fill="none" xmlns="http://www.w3.org/2000/svg">
<path fill-rule="evenodd" clip-rule="evenodd" d="M15.8464 2.96296H8.58307e-06L6.67216 9.63511H22.5185L15.8464 2.96296ZM6.67215 9.63512V25.4815L0 18.8093V2.96296L6.67215 9.63512Z" fill="#CCCCCC"/>
<mask id="path-2-inside-1_0_422" fill="white">
<path fill-rule="evenodd" clip-rule="evenodd" d="M6.67219 25.4815L22.5186 25.4815L15.8464 18.8093L3.62396e-05 18.8093L6.67219 25.4815ZM15.8464 18.8093L15.8464 2.96296L22.5186 9.63511L22.5186 25.4815L15.8464 18.8093Z"/>
</mask>
<path fill-rule="evenodd" clip-rule="evenodd" d="M6.67219 25.4815L22.5186 25.4815L15.8464 18.8093L3.62396e-05 18.8093L6.67219 25.4815ZM15.8464 18.8093L15.8464 2.96296L22.5186 9.63511L22.5186 25.4815L15.8464 18.8093Z" fill="black"/>
<path d="M22.5186 25.4815V26.4815H24.9328L23.2257 24.7744L22.5186 25.4815ZM6.67219 25.4815L5.96508 26.1886L6.25798 26.4815H6.67219V25.4815ZM15.8464 18.8093L16.5535 18.1022L16.2606 17.8093H15.8464V18.8093ZM3.62396e-05 18.8093V17.8093H-2.41418L-0.707071 19.5164L3.62396e-05 18.8093ZM15.8464 2.96296L16.5535 2.25585L14.8464 0.548748V2.96296H15.8464ZM15.8464 18.8093H14.8464V19.2235L15.1393 19.5164L15.8464 18.8093ZM22.5186 9.63511H23.5186V9.2209L23.2257 8.92801L22.5186 9.63511ZM22.5186 25.4815L21.8115 26.1886L23.5186 27.8957V25.4815H22.5186ZM22.5186 24.4815L6.67219 24.4815V26.4815L22.5186 26.4815V24.4815ZM15.1393 19.5164L21.8114 26.1886L23.2257 24.7744L16.5535 18.1022L15.1393 19.5164ZM3.62396e-05 19.8093L15.8464 19.8093V17.8093L3.62396e-05 17.8093V19.8093ZM7.3793 24.7744L0.707144 18.1022L-0.707071 19.5164L5.96508 26.1886L7.3793 24.7744ZM14.8464 2.96296L14.8464 18.8093H16.8464L16.8464 2.96296H14.8464ZM23.2257 8.92801L16.5535 2.25585L15.1393 3.67007L21.8115 10.3422L23.2257 8.92801ZM23.5186 25.4815L23.5186 9.63511H21.5186L21.5186 25.4815H23.5186ZM15.1393 19.5164L21.8115 26.1886L23.2257 24.7744L16.5535 18.1022L15.1393 19.5164Z" fill="black" mask="url(#path-2-inside-1_0_422)"/>
</svg>
